<svg width="212" height="212" viewBox="0 0 212 212" fill="none" xmlns="http://www.w3.org/2000/svg">
<path d="M205.616 87.0788L116.661 7.86844C116.363 7.60736 116.005 7.38328 115.602 7.21162C109.909 2.77119 102.045 2.9778 96.553 7.86844L7.59696 87.0696C1.22096 92.7424 0.415965 102.809 5.81296 109.517C9.22396 113.76 14.882 113.706 19.221 112.807V197.95C19.221 204.377 24.241 209.61 30.416 209.61H84.002C86.416 209.61 88.376 207.596 88.376 205.115V130.859H124.847V205.115C124.847 207.596 126.806 209.61 129.219 209.61H182.806C188.981 209.61 194.001 204.377 194.001 197.95V112.807C198.356 113.688 203.997 113.751 207.408 109.517C212.797 102.81 211.992 92.7332 205.616 87.0788ZM200.666 103.782C199.766 104.869 195.103 104.275 191.378 102.604C190.023 101.992 188.448 102.137 187.232 102.965C185.999 103.792 185.247 105.213 185.247 106.722V197.942C185.247 199.417 184.144 200.612 182.798 200.612H133.584V126.356C133.584 123.875 131.625 121.861 129.211 121.861H83.994C81.58 121.861 79.621 123.875 79.621 126.356V200.612H30.407C29.06 200.612 27.958 199.417 27.958 197.942V106.721C27.958 105.201 27.214 103.782 25.973 102.954C24.74 102.136 23.174 102.01 21.818 102.603C18.512 104.105 13.484 104.95 12.539 103.773C10.151 100.805 10.493 96.3647 13.309 93.8566L102.265 14.6473C104.697 12.4898 108.221 12.4898 110.653 14.6473C110.967 14.9351 111.327 15.1684 111.703 15.3401L199.889 93.8752C202.713 96.3739 203.053 100.814 200.666 103.782Z" fill="#520D0D"/>
</svg>
