<svg width="75" height="51" viewBox="0 0 75 51" fill="none" xmlns="http://www.w3.org/2000/svg">
<path d="M74.9082 21.0654C74.9082 20.9541 74.9026 20.8432 74.8912 20.7332C74.8833 20.6523 74.869 20.5734 74.8553 20.4942C74.8503 20.4665 74.8479 20.4383 74.8423 20.4106C74.823 20.3153 74.7983 20.2221 74.771 20.1301C74.7676 20.1188 74.7658 20.1073 74.7622 20.0962C74.7333 20.0022 74.6994 19.9108 74.6624 19.8206C74.6584 19.8108 74.6555 19.8004 74.6512 19.7904C74.6153 19.7046 74.5743 19.6217 74.5315 19.5399C74.5241 19.5254 74.5178 19.5104 74.5102 19.496C74.4691 19.4206 74.4236 19.3481 74.377 19.2762C74.3642 19.2565 74.3534 19.2356 74.3402 19.2161C74.2938 19.1478 74.2431 19.0826 74.192 19.0181C74.1756 18.9973 74.1608 18.9751 74.144 18.9545C74.0738 18.8704 74.0002 18.7897 73.9224 18.7128L55.9837 0.974204C54.6703 -0.324735 52.5405 -0.324735 51.2269 0.974204L33.2879 18.7128C33.2101 18.7897 33.1363 18.8704 33.0664 18.9547C33.0509 18.9735 33.0377 18.9935 33.0226 19.0126C32.9697 19.0789 32.9177 19.1461 32.8699 19.2163C32.8578 19.2343 32.8477 19.2534 32.8361 19.2716C32.7885 19.345 32.7419 19.419 32.7002 19.4962C32.6932 19.509 32.6878 19.5223 32.6811 19.5352C32.6374 19.6186 32.5957 19.7033 32.5591 19.7906C32.5558 19.7986 32.5533 19.8073 32.5499 19.8153C32.5123 19.9071 32.4777 20.0004 32.4481 20.0962C32.4452 20.1057 32.4434 20.1157 32.4405 20.1255C32.4127 20.219 32.3876 20.3137 32.3681 20.4106C32.3627 20.4368 32.3604 20.4636 32.3557 20.49C32.3414 20.5705 32.3273 20.6508 32.319 20.7332C32.3077 20.843 32.3019 20.9539 32.3019 21.0652V44.3476H16.6052V32.796C21.7755 31.3443 25.5749 26.6368 25.5749 21.0652V12.1957C25.5749 5.47127 20.0421 0.000332952 13.2415 0.000332952C6.44094 0.000332952 0.908203 5.47127 0.908203 12.1961V21.0656C0.908203 26.6372 4.70754 31.3445 9.8779 32.7964V44.3479H4.27184C2.41422 44.3479 0.908203 45.8371 0.908203 47.6739C0.908203 49.5108 2.41422 51 4.27184 51H71.5446C73.4022 51 74.9082 49.5108 74.9082 47.6739V21.0654ZM7.63548 21.0654V12.1959C7.63548 9.13925 10.1504 6.65246 13.2415 6.65246C16.3327 6.65246 18.8476 9.13925 18.8476 12.1961V21.0656C18.8476 24.1223 16.3327 26.6091 13.2415 26.6091C10.1504 26.6091 7.63548 24.1221 7.63548 21.0654ZM53.6052 35.4784C51.7475 35.4784 50.2415 36.9676 50.2415 38.8044V44.3479H39.0294V24.3915H68.1809V44.3479H56.9688V38.8044C56.9688 36.9676 55.4628 35.4784 53.6052 35.4784ZM53.6052 8.03034L63.4241 17.7393H43.7863L53.6052 8.03034Z" fill="white"/>
</svg>
