<svg width="49" height="49" viewBox="0 0 49 49" fill="none" xmlns="http://www.w3.org/2000/svg">
<path d="M45.2268 6.13013H3.77321C1.69536 6.13013 0 7.82549 0 9.90334V39.0966C0 41.1745 1.69536 42.8698 3.77321 42.8698H45.2268C47.3046 42.8698 49 41.1745 49 39.0966V9.90334C49 7.82549 47.3046 6.13013 45.2268 6.13013ZM44.6789 8.92127L24.7584 25.9576L4.83797 8.92127H44.6789ZM46.2089 39.0966C46.2089 39.6342 45.7643 40.0787 45.2268 40.0787H3.77321C3.23565 40.0787 2.79114 39.6342 2.79114 39.0966V10.8441L23.8487 28.8521C23.8591 28.8624 23.8797 28.8728 23.8901 28.8831C23.9004 28.8934 23.9211 28.9038 23.9314 28.9141C23.9624 28.9348 23.9831 28.9555 24.0141 28.9658C24.0245 28.9761 24.0348 28.9761 24.0451 28.9865C24.0865 29.0071 24.1278 29.0278 24.1692 29.0485C24.1795 29.0485 24.1899 29.0588 24.2002 29.0588C24.2312 29.0692 24.2622 29.0898 24.3036 29.1002C24.3139 29.1002 24.3346 29.1105 24.3449 29.1105C24.3759 29.1209 24.407 29.1312 24.438 29.1312C24.4483 29.1312 24.469 29.1415 24.4793 29.1415C24.5103 29.1519 24.5517 29.1519 24.5827 29.1622C24.593 29.1622 24.6034 29.1622 24.6137 29.1622C24.6551 29.1622 24.7067 29.1726 24.7481 29.1726C24.7895 29.1726 24.8411 29.1725 24.8825 29.1622C24.8928 29.1622 24.9032 29.1622 24.9135 29.1622C24.9445 29.1622 24.9859 29.1519 25.0169 29.1415C25.0272 29.1415 25.0479 29.1312 25.0582 29.1312C25.0892 29.1209 25.1203 29.1105 25.1513 29.1105C25.1616 29.1105 25.1823 29.1002 25.1926 29.1002C25.2236 29.0898 25.2546 29.0795 25.296 29.0588C25.3063 29.0588 25.3167 29.0485 25.327 29.0485C25.3684 29.0278 25.4097 29.0071 25.4511 28.9865C25.4614 28.9761 25.4717 28.9761 25.4821 28.9658C25.5131 28.9451 25.5338 28.9348 25.5648 28.9141C25.5751 28.9038 25.5958 28.8934 25.6061 28.8831C25.6165 28.8728 25.6371 28.8624 25.6475 28.8521L46.2089 11.2886V39.0966Z" fill="white"/>
</svg>
