<svg width="49" height="50" viewBox="0 0 49 50" fill="none" xmlns="http://www.w3.org/2000/svg">
<path d="M5.27323 13.7585C8.18501 13.7585 10.5465 11.3386 10.5465 8.37763C10.5465 5.41663 8.18501 2.98657 5.27323 2.98657C2.36145 2.98657 0 5.40642 0 8.36742C0 11.3284 2.37145 13.7585 5.27323 13.7585ZM5.27323 5.4881C6.83418 5.4881 8.09496 6.78482 8.09496 8.36742C8.09496 9.95002 6.82418 11.2467 5.27323 11.2467C3.72228 11.2467 2.4515 9.95002 2.4515 8.36742C2.4515 6.78482 3.72228 5.4881 5.27323 5.4881Z" fill="white"/>
<path d="M5.27323 30.3808C8.18501 30.3808 10.5465 27.961 10.5465 25C10.5465 22.039 8.18501 19.6191 5.27323 19.6191C2.36145 19.6191 0 22.0288 0 25C0 27.9712 2.37145 30.3808 5.27323 30.3808ZM5.27323 22.1207C6.83418 22.1207 8.09496 23.4174 8.09496 25C8.09496 26.5826 6.82418 27.8793 5.27323 27.8793C3.72228 27.8793 2.4515 26.5928 2.4515 25C2.4515 23.4072 3.72228 22.1207 5.27323 22.1207Z" fill="white"/>
<path d="M5.27323 47.0135C8.18501 47.0135 10.5465 44.5937 10.5465 41.6327C10.5465 38.6615 8.17501 36.2518 5.27323 36.2518C2.37145 36.2518 0 38.6717 0 41.6327C0 44.5937 2.37145 47.0135 5.27323 47.0135ZM5.27323 38.7432C6.83418 38.7432 8.09496 40.0399 8.09496 41.6225C8.09496 43.2153 6.82418 44.5018 5.27323 44.5018C3.72228 44.5018 2.4515 43.2051 2.4515 41.6225C2.4515 40.0399 3.72228 38.7432 5.27323 38.7432Z" fill="white"/>
<path d="M17.6008 9.62331H47.7692C48.4497 9.62331 49 9.06175 49 8.36744C49 7.67314 48.4497 7.11157 47.7692 7.11157H17.6008C16.9204 7.11157 16.37 7.67314 16.37 8.36744C16.37 9.06175 16.9204 9.62331 17.6008 9.62331Z" fill="white"/>
<path d="M17.6008 26.2559H47.7692C48.4497 26.2559 49 25.6943 49 25C49 24.3057 48.4497 23.7441 47.7692 23.7441H17.6008C16.9204 23.7441 16.37 24.3057 16.37 25C16.37 25.6943 16.9204 26.2559 17.6008 26.2559Z" fill="white"/>
<path d="M17.6008 42.8783H47.7692C48.4497 42.8783 49 42.3168 49 41.6224C49 40.9281 48.4497 40.3666 47.7692 40.3666H17.6008C16.9204 40.3666 16.37 40.9281 16.37 41.6224C16.37 42.3168 16.9204 42.8783 17.6008 42.8783Z" fill="white"/>
</svg>
