<svg width="51" height="49" viewBox="0 0 51 49" fill="none" xmlns="http://www.w3.org/2000/svg">
<path d="M50.3113 5.17908C49.8798 4.88923 49.3285 4.82064 48.8346 4.99521L40.5024 7.94106C38.7131 6.07302 36.1514 4.90018 33.31 4.90018C30.5095 4.90018 27.982 6.03997 26.1965 7.8609L18.091 4.99501C17.7325 4.86836 17.339 4.86836 16.9805 4.99501L1.05491 10.6262C0.421191 10.8503 0 11.4311 0 12.0806V42.7351C0 43.2415 0.25718 43.716 0.688676 44.0057C0.9626 44.1898 1.28504 44.2846 1.61027 44.2846C1.79725 44.2846 1.98531 44.2532 2.16542 44.1895L17.5359 38.7546L32.9072 44.1895C33.2655 44.3162 33.659 44.3162 34.0177 44.1895L49.9451 38.5584C50.5788 38.3344 51 37.7537 51 37.1039V6.44944C50.9998 5.94308 50.7428 5.46873 50.3113 5.17908ZM33.3098 7.99891C36.9298 7.99891 39.8749 10.8338 39.8749 14.3183C39.8749 19.7728 35.283 23.8832 33.3098 25.3976C31.3365 23.8832 26.7446 19.7726 26.7446 14.3183C26.7446 10.8338 29.6897 7.99891 33.3098 7.99891ZM47.7797 36.0224L33.4624 41.0842L18.091 35.6493C17.7325 35.5226 17.339 35.5226 16.9805 35.6493L3.22012 40.5152V13.1622L17.5359 8.10035L24.3617 10.5138C23.825 11.6782 23.5245 12.9646 23.5245 14.3185C23.5245 21.7336 29.8655 26.8212 31.8523 28.2335V36.0298C31.8523 36.8856 32.5732 37.5793 33.4624 37.5793C34.3516 37.5793 35.0724 36.8856 35.0724 36.0298V28.0121C37.3315 26.3419 43.095 21.3882 43.095 14.3185C43.095 13.001 42.8115 11.7461 42.3016 10.6064L47.7799 8.66952V36.0224H47.7797Z" fill="white"/>
<path d="M17.536 11.6057C16.6468 11.6057 15.9259 12.2995 15.9259 13.1552V30.3983C15.9259 31.254 16.6468 31.9478 17.536 31.9478C18.4251 31.9478 19.146 31.254 19.146 30.3983V13.1552C19.146 12.2995 18.4251 11.6057 17.536 11.6057Z" fill="white"/>
</svg>
