<svg width="50" height="49" viewBox="0 0 50 49" fill="none" xmlns="http://www.w3.org/2000/svg">
<path d="M41.7656 33.6329C39.2578 30.625 37.4873 29.0938 37.4873 20.8011C37.4873 13.207 33.5303 10.5015 30.2734 9.1875C29.8408 9.01332 29.4336 8.61328 29.3018 8.17783C28.7305 6.27238 27.1289 4.59375 25 4.59375C22.8711 4.59375 21.2686 6.27334 20.7031 8.17975C20.5713 8.61998 20.1641 9.01332 19.7314 9.1875C16.4707 10.5034 12.5176 13.1994 12.5176 20.8011C12.5127 29.0938 10.7422 30.625 8.23437 33.6329C7.19531 34.879 8.10546 36.75 9.92285 36.75H40.0869C41.8945 36.75 42.7988 34.8733 41.7656 33.6329Z" stroke="#520D0D" stroke-width="1.5" stroke-linecap="round" stroke-linejoin="round"/>
<path d="M31.25 36.75V38.2812C31.25 39.9057 30.5915 41.4636 29.4194 42.6123C28.2473 43.7609 26.6576 44.4062 25 44.4062C23.3424 44.4062 21.7527 43.7609 20.5806 42.6123C19.4085 41.4636 18.75 39.9057 18.75 38.2812V36.75" stroke="#520D0D" stroke-width="1.5" stroke-linecap="round" stroke-linejoin="round"/>
</svg>
