<svg width="31" height="30" viewBox="0 0 31 30" fill="none" xmlns="http://www.w3.org/2000/svg">
<path d="M6.51542 6.00062C8.96936 3.4391 12.3647 1.99349 15.9119 2.00002C23.0805 1.99099 28.8992 7.79521 28.9082 14.9641C28.9127 18.5089 27.4673 21.9013 24.9078 24.3536C24.9003 24.361 24.8975 24.3722 24.8901 24.3787C24.815 24.4511 24.7333 24.5124 24.6571 24.582C24.4483 24.7676 24.2394 24.9598 24.0194 25.139C23.9015 25.2318 23.779 25.3246 23.6583 25.41C23.4504 25.565 23.2424 25.7201 23.0253 25.8631C22.8776 25.9559 22.7254 26.0487 22.5741 26.1416C22.3737 26.2623 22.174 26.3838 21.967 26.4943C21.7916 26.5871 21.6125 26.6669 21.4342 26.7514C21.2393 26.8443 21.0471 26.9371 20.8476 27.0206C20.648 27.1041 20.4475 27.1691 20.2451 27.2415C20.0428 27.3139 19.8683 27.3808 19.6742 27.4402C19.4552 27.5061 19.2305 27.5571 19.0077 27.6119C18.8221 27.6574 18.642 27.7094 18.4508 27.7465C18.1946 27.7976 17.9347 27.8301 17.6747 27.8654C17.5141 27.8877 17.3573 27.9192 17.1949 27.935C16.7697 27.9768 16.3409 28 15.9083 28C15.4757 28 15.0469 27.9768 14.6217 27.935C14.4593 27.9192 14.3024 27.8877 14.1419 27.8654C13.8819 27.8301 13.622 27.7976 13.3658 27.7465C13.1802 27.7094 12.9945 27.6537 12.8088 27.6119C12.5861 27.5571 12.3614 27.5061 12.1423 27.4402C11.9483 27.3808 11.7609 27.3084 11.5715 27.2415C11.3821 27.1747 11.1667 27.1023 10.969 27.0206C10.7713 26.9389 10.5773 26.8433 10.3824 26.7514C10.2041 26.6669 10.025 26.5871 9.84957 26.4943C9.64256 26.3838 9.443 26.2622 9.24246 26.1416C9.09114 26.0487 8.9389 25.9642 8.79134 25.8631C8.57411 25.7201 8.36617 25.5651 8.15829 25.41C8.0376 25.3172 7.91511 25.2336 7.79719 25.139C7.57718 24.9626 7.36832 24.7751 7.15946 24.582C7.08337 24.5124 7.00167 24.4511 6.92645 24.3787C6.91906 24.3722 6.91623 24.3611 6.90883 24.3536C1.73226 19.3942 1.5562 11.1772 6.51542 6.00062ZM8.60179 23.3817C8.77073 23.5302 8.94527 23.6713 9.1216 23.8078C9.22554 23.8876 9.32954 23.9665 9.43631 24.0426C9.60432 24.1643 9.77511 24.2794 9.94872 24.3898C10.075 24.4706 10.204 24.5485 10.334 24.6247C10.4974 24.7175 10.6635 24.8103 10.8315 24.9032C10.9801 24.9793 11.1314 25.0508 11.2836 25.1214C11.4358 25.1919 11.6038 25.2671 11.7681 25.333C11.9325 25.3989 12.1069 25.4611 12.2787 25.5186C12.4356 25.5725 12.5924 25.6282 12.7512 25.6755C12.9368 25.7312 13.1308 25.7767 13.323 25.8231C13.4734 25.8584 13.6219 25.8983 13.7741 25.9281C13.9941 25.9708 14.2188 26.0005 14.4443 26.0311C14.5724 26.0478 14.6996 26.071 14.8286 26.084C15.1851 26.1183 15.5462 26.1388 15.911 26.1388C16.2758 26.1388 16.6369 26.1184 16.9934 26.084C17.1224 26.071 17.2496 26.0478 17.3777 26.0311C17.6033 26.0005 17.8279 25.9708 18.0479 25.9281C18.2002 25.8984 18.3487 25.8584 18.499 25.8231C18.6912 25.7767 18.8824 25.7303 19.0708 25.6755C19.2295 25.6282 19.3865 25.5725 19.5433 25.5186C19.715 25.4593 19.8868 25.3989 20.0539 25.333C20.221 25.2671 20.3788 25.1947 20.5385 25.1214C20.6982 25.048 20.842 24.9793 20.9905 24.9032C21.1585 24.8159 21.3247 24.724 21.4881 24.6247C21.618 24.5486 21.7471 24.4706 21.8733 24.3898C22.0469 24.2794 22.2177 24.1643 22.3857 24.0426C22.4925 23.9665 22.5964 23.8876 22.7004 23.8078C22.8768 23.6713 23.0513 23.5293 23.2202 23.3817C23.2611 23.351 23.2982 23.312 23.3381 23.2767C23.2966 20.1188 21.268 17.3304 18.2762 16.3191C16.7803 17.0307 15.0435 17.0307 13.5476 16.3191C10.5559 17.3304 8.52733 20.1188 8.48578 23.2767C8.52477 23.312 8.56192 23.3473 8.60179 23.3817ZM19.1489 9.44304C18.1438 7.65547 15.88 7.02119 14.0925 8.02632C12.305 9.03145 11.6708 11.2953 12.6759 13.0829C13.0093 13.676 13.4994 14.1661 14.0925 14.4996C14.0971 14.4996 14.1027 14.4996 14.1083 14.5052C14.3545 14.6422 14.6146 14.7524 14.8843 14.8338C14.9326 14.8477 14.9772 14.8663 15.0282 14.8784C15.121 14.9025 15.2185 14.9192 15.3141 14.9359C15.4942 14.9674 15.6763 14.9857 15.859 14.9907H15.9649C16.1476 14.9857 16.3297 14.9674 16.5097 14.9359C16.6026 14.9192 16.701 14.9025 16.7956 14.8784C16.8448 14.8663 16.8885 14.8477 16.9395 14.8338C17.2092 14.7524 17.4694 14.6422 17.7155 14.5052L17.7322 14.4996C19.5197 13.4945 20.154 11.2306 19.1489 9.44304ZM6.83905 21.436C7.43473 18.6574 9.26432 16.3018 11.809 15.0372C9.72882 12.7711 9.87948 9.24771 12.1454 7.16746C14.4114 5.0872 17.9347 5.23787 20.0148 7.50393C21.9704 9.63428 21.9704 12.9069 20.0148 15.0372C22.5595 16.3019 24.3891 18.6574 24.9848 21.436C28.5443 16.4219 27.3653 9.47143 22.3515 5.91174C17.3376 2.35205 10.3874 3.53107 6.8279 8.54518C5.48983 10.4301 4.77155 12.6847 4.77269 14.9963C4.77269 17.3059 5.49522 19.5576 6.83905 21.436Z" fill="#520D0D"/>
</svg>
