<svg width="48" height="50" viewBox="0 0 48 50" fill="none" xmlns="http://www.w3.org/2000/svg">
<path d="M47.395 46.4187L33.6231 32.0627C36.3381 28.671 37.9711 24.3365 37.9711 19.6024C37.9711 8.80214 29.462 0.0205078 18.9954 0.0205078C8.52874 0.0205078 0 8.81239 0 19.6127C0 30.413 8.50907 39.1946 18.9757 39.1946C23.4221 39.1946 27.5143 37.6063 30.7605 34.9524L44.5816 49.3493C45.3883 50.1896 46.5884 50.1896 47.395 49.3493C48.2017 48.5091 48.2017 47.2589 47.395 46.4187ZM4.0332 19.6127C4.0332 11.1282 10.7421 4.232 18.9757 4.232C27.2093 4.232 33.9182 11.1282 33.9182 19.6127C33.9182 28.0971 27.2093 34.9933 18.9757 34.9933C10.7421 34.9933 4.0332 28.0869 4.0332 19.6127Z" fill="#520D0D"/>
</svg>
